<svg width="22" height="20" viewBox="0 0 22 20" fill="none" xmlns="http://www.w3.org/2000/svg">
<path id="Shield50" fill-rule="evenodd" clip-rule="evenodd" d="M10.6517 0.0003211C10.8305 -0.00861493 11.733 0.170106 12.6534 0.393506C13.5828 0.616907 14.8964 0.938604 15.5844 1.10839C16.2725 1.27817 16.898 1.47477 16.9695 1.55519C17.0857 1.68029 17.0321 2.29688 16.487 7.16702C16.1563 10.1785 15.79 13.4222 15.4772 16.1209L14.6819 16.8626C14.244 17.2737 13.3326 18.1137 12.6534 18.7392C11.9743 19.3647 11.3488 19.9009 11.2683 19.9366C11.1879 19.9723 10.9377 19.9992 10.7143 19.9992C10.473 20.0081 10.2228 19.9455 10.0798 19.8472C9.9458 19.7668 9.00752 18.9179 7.97987 17.9617C6.95223 17.0056 6.08544 16.1835 6.04969 16.1299C6.02288 16.0762 5.84416 14.9056 5.66544 13.5295C5.49566 12.1533 5.26332 10.4019 5.16502 9.6423C5.06673 8.88273 4.91482 7.64956 4.81652 6.91681C4.71822 6.17512 4.5395 4.7811 4.4144 3.80707C4.28929 2.84198 4.191 1.97518 4.191 1.88582C4.191 1.8054 4.24461 1.66242 4.3161 1.57306C4.4144 1.44796 5.24545 1.21562 7.38116 0.706267C8.98964 0.322018 10.4641 0.00925713 10.6428 0.0003211H10.6517ZM10.2496 6.24661C10.1781 6.41639 10.062 6.61298 9.99942 6.67554C9.91006 6.75596 9.7224 6.78277 9.35602 6.74702C8.90028 6.70234 8.8288 6.71128 8.62327 6.91681C8.49816 7.04191 8.39987 7.2117 8.39987 7.29212C8.39987 7.38148 8.43561 7.58701 8.48923 7.73892C8.54284 7.91764 8.54284 8.09636 8.49816 8.18572C8.45348 8.27508 8.21221 8.44487 7.962 8.56997C7.70286 8.69508 7.47946 8.86486 7.46158 8.94529C7.43478 9.03465 7.43478 9.17762 7.45265 9.25805C7.47946 9.34741 7.66711 9.49038 7.88158 9.57974C8.09604 9.6691 8.33731 9.81208 8.42667 9.89251C8.56072 10.0176 8.57859 10.1338 8.54284 10.5091C8.49816 10.9291 8.51604 11.0095 8.71263 11.2061C8.90028 11.3938 8.98965 11.4206 9.31134 11.3848C9.52581 11.358 9.77602 11.367 9.86538 11.4027C9.96367 11.4384 10.1335 11.6886 10.2496 11.9389C10.3658 12.198 10.5356 12.4482 10.6339 12.5018C10.753 12.5614 10.8722 12.5614 10.9913 12.5018C11.0896 12.4482 11.2505 12.2337 11.3488 12.0103C11.4471 11.7869 11.6168 11.5457 11.7241 11.4742C11.8849 11.3759 12.01 11.367 12.287 11.4384C12.573 11.5099 12.6892 11.501 12.8411 11.3848C12.9572 11.3133 13.0913 11.1614 13.1449 11.0453C13.2253 10.9023 13.2253 10.7593 13.1449 10.5091C13.0823 10.2857 13.0734 10.1248 13.136 9.99974C13.1896 9.90144 13.3951 9.74953 13.6006 9.65123C13.8151 9.56187 14.0385 9.42783 14.0921 9.33847C14.1547 9.25805 14.1904 9.0972 14.1636 8.97209C14.1279 8.81125 14.0206 8.71295 13.7347 8.60572C13.5291 8.52529 13.2879 8.40019 13.1985 8.31976C13.0555 8.19466 13.0377 8.08743 13.0913 7.72105C13.136 7.3368 13.1181 7.2385 12.9394 7.0151C12.7428 6.77383 12.707 6.7649 12.2602 6.81851C11.8224 6.87213 11.7866 6.85426 11.5722 6.60405C11.4471 6.45213 11.3488 6.28235 11.3488 6.2198C11.3577 6.16618 11.2773 6.00533 11.17 5.86236C11.0717 5.72832 10.9198 5.62108 10.8215 5.62108C10.7322 5.62108 10.5981 5.69257 10.5177 5.773C10.4373 5.86236 10.3211 6.07682 10.2496 6.24661ZM2.50209 2.94027C2.62719 2.94027 2.7791 2.98495 2.84166 3.04751C2.90421 3.119 3.13655 4.65599 3.43143 7.00617C3.69952 9.11507 3.93185 11.0095 3.94972 11.2061C3.9676 11.4295 3.94079 11.5635 3.87824 11.5635C3.81568 11.5635 3.12761 11.0184 2.3323 10.3572C1.537 9.69591 0.884667 9.13294 0.893603 9.10613C0.893603 9.07933 0.688074 7.99807 0.446801 6.69341C0.205529 5.38875 0 4.19132 0 4.03047C0 3.82494 0.0536161 3.71771 0.205529 3.64622C0.312761 3.58367 0.822115 3.40495 1.3404 3.2441C1.85869 3.08325 2.37698 2.94921 2.50209 2.94027ZM18.7567 2.94027C18.8818 2.94921 19.4895 3.11899 20.1061 3.32452C21.1873 3.6909 21.2231 3.70877 21.2499 3.96792C21.2677 4.11089 21.0712 5.31726 20.8299 6.64873C20.5797 7.97126 20.3741 9.07933 20.3741 9.10613C20.3831 9.13294 19.7307 9.69591 18.9354 10.3572C18.1401 11.0184 17.4521 11.5635 17.3895 11.5635C17.327 11.5635 17.3001 11.4295 17.318 11.2061C17.3359 11.0095 17.5772 9.12401 17.8452 7.02404C18.1133 4.92407 18.3725 3.1458 18.4261 3.07431C18.4797 3.00283 18.6227 2.94027 18.7567 2.94027ZM1.45657 10.7682C1.51912 10.804 2.15358 11.3312 2.8774 11.9389C3.61016 12.5465 4.19993 13.0648 4.19993 13.1005C4.19993 13.1452 4.26249 13.6546 4.33397 14.2444C4.40546 14.8341 4.48589 15.4686 4.51269 15.6473C4.54844 15.9065 4.53057 15.9869 4.42333 15.9869C4.35185 15.9869 3.75313 15.5401 3.1008 14.995C2.45741 14.4499 1.89444 13.9763 1.85869 13.9495C1.82295 13.9137 1.6621 13.2256 1.51019 12.4125C1.36721 11.5993 1.26892 10.8844 1.29572 10.8219C1.32253 10.7593 1.40296 10.7325 1.45657 10.7682ZM19.9273 10.795C19.9542 10.8397 19.8827 11.501 19.7576 12.2516C19.6414 13.0022 19.5163 13.6903 19.4895 13.7707C19.4627 13.8601 18.8818 14.3873 18.2116 14.9592C17.5325 15.5222 16.9159 15.9869 16.8444 15.9869C16.7372 15.9869 16.7193 15.9065 16.7551 15.6473C16.7819 15.4686 16.8623 14.8341 16.9338 14.2444C17.0053 13.6546 17.0678 13.1452 17.0589 13.1095C17.0589 13.0737 17.6933 12.5197 18.4618 11.8763C19.2393 11.2329 19.9005 10.7414 19.9273 10.795Z" fill="#61eab6"/>
</svg>