<svg xmlns="http://www.w3.org/2000/svg" width="239" height="251" viewBox="0 0 239 251" fill="none">
  <path fill-rule="evenodd" clip-rule="evenodd" d="M119.113 0.187012C121.812 0.187012 138.013 6.58701 177.613 23.187C220.113 41.087 232.913 46.887 235.113 49.187C237.113 51.387 237.812 53.187 237.812 56.187C237.812 58.387 232.212 83.487 225.312 111.987C218.413 140.387 212.012 166.887 211.113 170.687C209.812 176.487 208.812 178.387 205.413 181.687C203.113 183.887 185.113 199.187 165.413 215.687C145.812 232.187 128.212 246.687 126.512 247.987C124.512 249.387 121.812 250.187 119.312 250.187C116.812 250.187 114.113 249.387 112.113 247.987C110.413 246.687 91.5125 231.087 70.2125 213.187C48.9125 195.287 30.9125 179.787 30.2125 178.687C29.5125 177.587 22.6125 150.387 14.9125 118.187C7.1125 85.987 0.8125 58.187 0.8125 56.387C0.8125 54.687 1.4125 52.087 2.1125 50.687C2.7125 49.287 5.1125 47.187 7.3125 46.087C9.5125 44.987 34.7125 34.187 63.3125 22.187C98.8125 7.18701 116.513 0.287012 119.113 0.187012ZM72.3125 40.487C48.6125 50.387 28.3125 59.387 27.0125 60.587C25.8125 61.687 24.5125 63.987 24.2125 65.687C23.9125 67.487 25.3125 75.487 27.7125 85.187C29.9125 94.287 33.7125 110.187 36.2125 120.687C38.7125 131.087 41.5125 140.987 42.3125 142.687C43.5125 145.087 46.8125 147.187 57.3125 152.387C68.0125 157.787 71.1125 159.787 72.3125 162.187C73.1125 163.887 73.8125 166.787 73.8125 168.687C73.8125 170.587 72.9125 173.987 71.8125 176.187C70.7125 178.387 69.8125 180.887 69.8125 181.687C69.8125 182.487 70.4125 184.387 71.0125 185.787C71.7125 187.287 81.9125 196.487 93.5125 206.287C114.212 223.687 114.912 224.187 119.312 224.187C123.713 224.187 124.412 223.687 143.512 207.687C154.412 198.587 164.113 189.887 165.012 188.387C166.012 186.887 166.812 184.387 166.812 182.687C166.812 180.987 165.613 177.687 164.113 175.187C162.012 171.587 161.613 169.887 162.113 166.687C162.512 164.487 163.712 161.787 164.812 160.687C165.913 159.587 173.012 155.487 180.512 151.687C188.312 147.687 195.012 143.587 196.012 142.187C197.012 140.787 201.512 124.087 206.312 104.187C211.812 81.687 214.713 67.587 214.413 65.687C214.113 63.987 212.812 61.687 211.613 60.587C210.312 59.387 190.012 50.287 166.312 40.387C142.613 30.487 122.213 22.087 120.812 21.787C119.412 21.587 117.613 21.587 116.812 21.887C116.012 22.187 95.9125 30.587 72.3125 40.487ZM119.512 71.187C120.812 71.187 122.612 71.587 123.512 72.087C124.512 72.487 127.312 77.487 129.812 83.187C132.312 88.787 135.012 93.987 135.812 94.687C136.613 95.387 140.913 97.387 145.312 99.087C149.712 100.887 154.113 103.087 155.113 103.987C156.113 104.887 156.913 106.887 156.812 108.387C156.812 109.987 155.913 111.987 154.812 112.887C153.613 113.887 148.812 116.287 144.012 118.287C138.012 120.687 134.912 122.587 134.012 124.287C133.312 125.587 131.012 130.587 128.812 135.387C126.012 141.587 124.012 144.587 122.212 145.387C120.112 146.487 119.213 146.387 117.113 145.187C115.413 144.187 113.112 140.287 109.912 133.187C105.912 124.187 104.812 122.387 101.812 120.987C99.9125 119.987 95.3125 117.887 91.5125 116.187C87.0125 114.187 84.4125 112.387 83.5125 110.587C82.5125 108.487 82.6125 107.587 83.8125 105.487C84.8125 103.787 88.0125 101.787 93.8125 99.487C98.5125 97.587 103.113 95.287 104.113 94.387C105.013 93.387 107.912 88.187 110.412 82.687C112.912 77.287 115.513 72.387 116.213 71.987C116.812 71.587 118.312 71.187 119.512 71.187Z" fill="#61eab6"/>
</svg>