<svg xmlns="http://www.w3.org/2000/svg" width="69" height="62" viewBox="0 0 69 62" fill="none">
  <g filter="url(#filter0_d_1216_10412)">
    <path d="M28.4827 26.3982V21.5744C28.4827 21.2187 28.6716 20.8898 28.9788 20.7106L33.9788 17.7939C34.2902 17.6123 34.6752 17.6123 34.9865 17.7939L39.9865 20.7106C40.2938 20.8898 40.4827 21.2187 40.4827 21.5744V26.4256C40.4827 26.7813 40.2938 27.1102 39.9865 27.2894L35.0219 30.1855C34.6919 30.378 34.2821 30.3651 33.9604 30.1592C32.2154 29.0422 30.0061 27.8233 29.0109 27.284C28.6854 27.1075 28.4827 26.7685 28.4827 26.3982Z" stroke="white" stroke-width="3"/>
    <path fill-rule="evenodd" clip-rule="evenodd" d="M33.4789 8C33.4789 7.44772 33.0312 7 32.4789 7H14.8713C10.2533 7 7.36644 11.9983 9.67414 15.9983L18.8118 31.8369C19.1404 32.4065 19.92 32.5093 20.3851 32.0443L22.2713 30.158C22.5723 29.857 22.6462 29.3999 22.4821 29.0071C21.8383 27.466 21.4828 25.7745 21.4828 24C21.4828 17.4744 26.2908 12.0719 32.5576 11.1416C33.0747 11.0648 33.4789 10.6344 33.4789 10.1116V8ZM16.1129 10.5C16.4978 9.83333 17.46 9.83333 17.8449 10.5L20.876 15.75C21.2609 16.4167 20.7798 17.25 20.01 17.25H13.9478C13.178 17.25 12.6969 16.4167 13.0818 15.75L16.1129 10.5Z" fill="white"/>
    <path fill-rule="evenodd" clip-rule="evenodd" d="M29.2857 49.9917L20.8813 35.4242C20.6552 35.0322 20.7205 34.5373 21.0404 34.2173L22.9761 32.2816C23.416 31.8417 24.1452 31.9081 24.5467 32.3834C26.9313 35.2068 30.4977 37 34.4828 37C38.5518 37 42.1842 35.1306 44.5679 32.2037C44.9659 31.7151 45.7065 31.6406 46.1521 32.0861L48.0562 33.9902C48.3761 34.3102 48.4414 34.8051 48.2152 35.1971L39.6799 49.9917C37.3709 53.9939 31.5947 53.9939 29.2857 49.9917ZM33.6129 40.5C33.9978 39.8333 34.96 39.8333 35.3449 40.5L38.809 46.5C39.1939 47.1667 38.7128 48 37.943 48H31.0148C30.245 48 29.7639 47.1667 30.1488 46.5L33.6129 40.5Z" fill="white"/>
    <path fill-rule="evenodd" clip-rule="evenodd" d="M48.7115 31.8172C49.1766 32.2822 49.9562 32.1795 50.2848 31.6098L59.2914 15.9983C61.5991 11.9983 58.7123 7 54.0943 7H36.4789C35.9266 7 35.4789 7.44772 35.4789 8V10.1105C35.4789 10.6335 35.8834 11.064 36.4008 11.1405C42.6711 12.0677 47.4828 17.4719 47.4828 24C47.4828 25.6848 47.1623 27.2948 46.5789 28.7723C46.4254 29.1611 46.5024 29.608 46.798 29.9036L48.7115 31.8172ZM55.01 17.25C55.7798 17.25 56.2609 16.4167 55.876 15.75L52.8449 10.5C52.46 9.83333 51.4978 9.83333 51.1129 10.5L48.0818 15.75C47.6969 16.4167 48.178 17.25 48.9478 17.25H55.01Z" fill="white"/>
  </g>
  <defs>
    <filter id="filter0_d_1216_10412" x="0.862305" y="0" width="67.241" height="61.9934" filterUnits="userSpaceOnUse" color-interpolation-filters="sRGB">
      <feFlood flood-opacity="0" result="BackgroundImageFix"/>
      <feColorMatrix in="SourceAlpha" type="matrix" values="0 0 0 0 0 0 0 0 0 0 0 0 0 0 0 0 0 0 127 0" result="hardAlpha"/>
      <feOffset dy="1"/>
      <feGaussianBlur stdDeviation="4"/>
      <feComposite in2="hardAlpha" operator="out"/>
      <feColorMatrix type="matrix" values="0 0 0 0 0 0 0 0 0 0 0 0 0 0 0 0 0 0 0.3 0"/>
      <feBlend mode="normal" in2="BackgroundImageFix" result="effect1_dropShadow_1216_10412"/>
      <feBlend mode="normal" in="SourceGraphic" in2="effect1_dropShadow_1216_10412" result="shape"/>
    </filter>
  </defs>
</svg>