<svg width="39" height="34" viewBox="0 0 39 34" fill="none" xmlns="http://www.w3.org/2000/svg">
<g id="logos/discord">
<path id="fill" d="M13.7503 31.5176C13.6897 31.5271 13.6251 31.5266 13.5617 31.5179C10.4216 31.0517 7.40061 30.0444 4.5831 28.5229C4.42222 28.4362 4.30238 28.2818 4.25866 28.1022C2.52816 21.2615 3.13126 14.7365 6.10533 8.15639C6.15537 8.04727 6.23137 7.95539 6.32952 7.88935C8.32829 6.53352 10.4938 5.44996 12.7668 4.67198C12.8013 4.66124 12.8358 4.65049 12.8711 4.64495C13.0955 4.60971 13.3269 4.70128 13.473 4.89152C13.7883 5.30303 14.0879 5.73031 14.3707 6.16557C15.4342 5.84667 16.5272 5.60041 17.6241 5.42816C18.721 5.25591 19.8348 5.15829 20.9444 5.13327C21.0798 4.62968 21.234 4.13111 21.4084 3.64538C21.4892 3.41951 21.6814 3.26141 21.9058 3.22617C21.9411 3.22063 21.9768 3.21769 22.0133 3.21994C24.4149 3.26118 26.808 3.62622 29.1211 4.30493C29.2322 4.33811 29.3352 4.40187 29.4134 4.4882C34.2757 9.80046 36.8577 15.8279 37.2991 22.9163C37.3104 23.1037 37.2458 23.2844 37.1192 23.4162C34.9041 25.7307 32.3347 27.6159 29.4853 29.0173C29.4277 29.045 29.3688 29.0649 29.3083 29.0744C29.1116 29.1053 28.9103 29.041 28.7627 28.891C27.9399 28.0608 27.1771 27.152 26.5019 26.1921C26.4151 26.0672 26.3708 25.9169 26.3807 25.7661C24.6998 26.563 22.9087 27.1188 21.0806 27.4059C19.2524 27.6929 17.3743 27.7107 15.5275 27.4678C15.5806 27.6087 15.5871 27.7649 15.5427 27.9104C15.1917 29.0315 14.7467 30.13 14.2184 31.175C14.1239 31.363 13.9495 31.4863 13.7528 31.5172L13.7503 31.5176ZM24.5662 14.8694C23.3029 15.0678 22.4957 16.3937 22.7301 17.8865C22.9645 19.3793 24.1574 20.3779 25.4005 20.1826C26.6437 19.9874 27.4462 18.6649 27.2345 17.1685C27.1287 16.4123 26.7453 15.7317 26.1845 15.3028C25.7031 14.936 25.1285 14.7811 24.5662 14.8694ZM13.9101 16.5428C12.6695 16.7376 11.8458 18.0901 12.0765 19.5595C12.3073 21.0289 13.5063 22.0505 14.7495 21.8552C15.9926 21.66 16.7977 20.3371 16.586 18.8407C16.4805 18.0871 16.0951 17.4095 15.5342 16.9806C15.0496 16.609 14.4724 16.4545 13.9101 16.5428Z" fill="#24AFFE"/>
<path id="stroke" d="M22.0081 3.87636C24.3551 3.91552 26.6902 4.27366 28.9517 4.93648C33.4395 9.83854 36.2115 15.7269 36.6641 22.9521C34.5067 25.2069 31.9838 27.0581 29.2063 28.4243C28.4053 27.6174 27.6738 26.7436 27.0156 25.8103C27.9087 25.2944 28.7559 24.7003 29.5446 24.0302C29.2928 23.9071 29.0406 23.7655 28.7922 23.6153C26.4209 25.2642 23.7473 26.3209 20.9761 26.7561C18.2049 27.1913 15.3361 27.0049 12.5735 26.1623C12.3836 26.368 12.187 26.58 11.9845 26.7877C12.9403 27.1813 13.9266 27.49 14.9319 27.7053C14.5915 28.7953 14.161 29.8543 13.6483 30.8675C10.5879 30.4154 7.62106 29.4236 4.87688 27.9412C3.34529 21.89 3.50186 15.4832 6.68462 8.43854C8.63663 7.11404 10.7521 6.057 12.9733 5.29514C13.3767 5.8234 13.7522 6.37201 14.0995 6.93837C15.2851 6.55766 16.4984 6.27119 17.7264 6.07835C18.9544 5.88551 20.1946 5.7867 21.4398 5.78569C21.5968 5.14013 21.7861 4.50282 22.0081 3.87636ZM25.5028 20.8328C27.1141 20.5798 28.1248 18.9048 27.8667 17.08C27.6085 15.2551 26.0881 13.9643 24.4642 14.2193C22.8403 14.4743 21.814 16.1651 22.0999 17.9855C22.3858 19.806 23.9193 21.0815 25.5028 20.8328ZM14.8517 22.5054C16.463 22.2524 17.4763 20.577 17.2181 18.7522C16.96 16.9273 15.4295 15.638 13.8081 15.8927C12.1868 16.1473 11.1604 17.8381 11.4463 19.6585C11.7322 21.479 13.2707 22.7537 14.8517 22.5054ZM21.8039 2.57601C21.3525 2.64689 20.9681 2.96308 20.809 3.41444C20.6836 3.76724 20.5669 4.12666 20.4611 4.4897C19.4778 4.52953 18.493 4.62556 17.5222 4.77801C16.5514 4.93046 15.587 5.14052 14.6363 5.4044C14.4244 5.09126 14.2031 4.7849 13.9756 4.48753C13.6833 4.10706 13.2205 3.92391 12.7691 3.99479C12.6985 4.00588 12.6287 4.02217 12.5602 4.04626C10.2334 4.84335 8.01731 5.95083 5.97431 7.33759C5.78054 7.46928 5.6239 7.65643 5.52634 7.87428C2.48737 14.6005 1.87061 21.2689 3.64033 28.2606C3.7307 28.6222 3.96746 28.9287 4.29215 29.1043C7.1746 30.6609 10.2639 31.6921 13.4779 32.168C13.6046 32.1854 13.7315 32.1868 13.8525 32.1678C14.2433 32.1064 14.5918 31.8572 14.7812 31.4837C15.3137 30.4327 15.7655 29.3278 16.1229 28.1978C17.8104 28.3645 19.5161 28.3178 21.1803 28.0564C22.8445 27.7951 24.4799 27.3171 26.033 26.6442C26.7195 27.6103 27.4882 28.5235 28.3173 29.3607C28.612 29.6582 29.0197 29.786 29.4105 29.7246C29.5316 29.7056 29.6523 29.668 29.7651 29.613C32.6814 28.177 35.311 26.2478 37.5771 23.88C37.8303 23.6164 37.9617 23.252 37.9369 22.8802C37.4886 15.7315 34.7778 9.39387 29.8754 4.03995C29.7162 3.86509 29.5126 3.73716 29.2882 3.6738C26.9206 2.977 24.4747 2.60429 22.016 2.56135C21.9434 2.55944 21.8719 2.56532 21.8013 2.57641L21.8039 2.57601ZM25.2986 19.5325C24.4186 19.6707 23.531 18.8721 23.3607 17.7876C23.1903 16.7031 23.7733 15.6602 24.6684 15.5196C25.1702 15.4408 25.5641 15.6454 25.8073 15.8284C26.2304 16.1537 26.5212 16.673 26.6026 17.2571C26.763 18.3938 26.1912 19.3923 25.2986 19.5325ZM14.6475 21.2051C13.765 21.3437 12.8774 20.545 12.7071 19.4606C12.5368 18.3761 13.1172 17.3336 14.0123 17.193C14.5166 17.1138 14.9134 17.3206 15.157 17.5062C15.5802 17.8315 15.871 18.3508 15.9541 18.9293C16.1145 20.066 15.5402 21.0649 14.6475 21.2051Z" fill="#F3F3F3"/>
</g>
</svg>
